<svg width="48" height="48" viewBox="0 0 48 48" fill="none" xmlns="http://www.w3.org/2000/svg">
<path d="M8 8H13.3333V13.3333H8V8Z" fill="#699BF7"/>
<path d="M0 21.3333V0H21.3333V21.3333H0ZM5.33333 5.33333V16H16V5.33333H5.33333Z" fill="#699BF7"/>
<path d="M26.6667 26.6667H34.6667V32.0001H26.6667V26.6667Z" fill="#699BF7"/>
<path d="M34.6667 32.0001H40V26.6667H48V34.6667H40V37.3334H42.6667V40.0001H48V48.0001H42.6667V42.6667H37.3333V48.0001H26.6667V37.3334H32V42.6667H34.6667V32.0001Z" fill="#699BF7"/>
<path d="M40 8H34.6667V13.3333H40V8Z" fill="#699BF7"/>
<path d="M26.6667 0V21.3333H48V0H26.6667ZM42.6667 5.33333V16H32V5.33333H42.6667Z" fill="#699BF7"/>
<path d="M8 34.6667H13.3333V40.0001H8V34.6667Z" fill="#699BF7"/>
<path d="M0 48.0001V26.6667H21.3333V48.0001H0ZM5.33333 32.0001V42.6667H16V32.0001H5.33333Z" fill="#699BF7"/>
</svg>
