<svg width="108" height="108" viewBox="0 0 108 108" fill="none" xmlns="http://www.w3.org/2000/svg">
<path d="M40.6667 24.6667V40.6667H24.6667V24.6667H40.6667ZM48.6667 16.6667H16.6667V48.6667H48.6667V16.6667ZM40.6667 67.3334V83.3334H24.6667V67.3334H40.6667ZM48.6667 59.3334H16.6667V91.3334H48.6667V59.3334ZM83.3333 24.6667V40.6667H67.3333V24.6667H83.3333ZM91.3333 16.6667H59.3333V48.6667H91.3333V16.6667ZM59.3333 59.3334H67.3333V67.3334H59.3333V59.3334ZM67.3333 67.3334H75.3333V75.3334H67.3333V67.3334ZM75.3333 59.3334H83.3333V67.3334H75.3333V59.3334ZM59.3333 75.3334H67.3333V83.3334H59.3333V75.3334ZM67.3333 83.3334H75.3333V91.3334H67.3333V83.3334ZM75.3333 75.3334H83.3333V83.3334H75.3333V75.3334ZM83.3333 67.3334H91.3333V75.3334H83.3333V67.3334ZM83.3333 83.3334H91.3333V91.3334H83.3333V83.3334ZM102 27.3334C99.0667 27.3334 96.6667 24.9334 96.6667 22.0001V11.3334H86C83.0667 11.3334 80.6667 8.93342 80.6667 6.00008C80.6667 3.06675 83.0667 0.666748 86 0.666748H102C104.933 0.666748 107.333 3.06675 107.333 6.00008V22.0001C107.333 24.9334 104.933 27.3334 102 27.3334ZM107.333 102V86.0001C107.333 83.0667 104.933 80.6667 102 80.6667C99.0667 80.6667 96.6667 83.0667 96.6667 86.0001V96.6667H86C83.0667 96.6667 80.6667 99.0667 80.6667 102C80.6667 104.933 83.0667 107.333 86 107.333H102C104.933 107.333 107.333 104.933 107.333 102ZM5.99999 107.333H22C24.9333 107.333 27.3333 104.933 27.3333 102C27.3333 99.0667 24.9333 96.6667 22 96.6667H11.3333V86.0001C11.3333 83.0667 8.93332 80.6667 5.99999 80.6667C3.06666 80.6667 0.666656 83.0667 0.666656 86.0001V102C0.666656 104.933 3.06666 107.333 5.99999 107.333ZM0.666656 6.00008V22.0001C0.666656 24.9334 3.06666 27.3334 5.99999 27.3334C8.93332 27.3334 11.3333 24.9334 11.3333 22.0001V11.3334H22C24.9333 11.3334 27.3333 8.93342 27.3333 6.00008C27.3333 3.06675 24.9333 0.666748 22 0.666748H5.99999C3.06666 0.666748 0.666656 3.06675 0.666656 6.00008Z" fill="#699BF7"/>
</svg>
