<svg width="current" height="current" viewBox="0 0 108 108" fill="current" xmlns="http://www.w3.org/2000/svg">
<path d="M54 86C62.4869 86 70.6263 82.6285 76.6274 76.6274C82.6286 70.6262 86 62.4869 86 54C86 45.513 82.6286 37.3737 76.6274 31.3725C70.6263 25.3714 62.4869 22 54 22C45.5131 22 37.3737 25.3714 31.3726 31.3725C25.3714 37.3737 22 45.513 22 54C22 62.4869 25.3714 70.6262 31.3726 76.6274C37.3737 82.6285 45.5131 86 54 86ZM107.333 54C107.333 68.1448 101.714 81.7104 91.7124 91.7123C81.7104 101.714 68.1449 107.333 54 107.333C39.8551 107.333 26.2896 101.714 16.2876 91.7123C6.2857 81.7104 0.666664 68.1448 0.666664 54C0.666664 39.8551 6.2857 26.2895 16.2876 16.2876C26.2896 6.28566 39.8551 0.666626 54 0.666626C68.1449 0.666626 81.7104 6.28566 91.7124 16.2876C101.714 26.2895 107.333 39.8551 107.333 54ZM96.6667 54C96.6667 42.6841 92.1714 31.8316 84.1699 23.8301C76.1683 15.8285 65.3159 11.3333 54 11.3333C42.6841 11.3333 31.8317 15.8285 23.8301 23.8301C15.8286 31.8316 11.3333 42.6841 11.3333 54C11.3333 65.3159 15.8286 76.1683 23.8301 84.1698C31.8317 92.1714 42.6841 96.6666 54 96.6666C65.3159 96.6666 76.1683 92.1714 84.1699 84.1698C92.1714 76.1683 96.6667 65.3159 96.6667 54Z" fill="#699BF7"/>
</svg>
