<svg width="100" height="112" viewBox="0 0 100 112" fill="none" xmlns="http://www.w3.org/2000/svg">
<path d="M68 100.72L57.64 90.36L52 96L68 112L100 80L94.36 74.36L68 100.72Z" fill="#699BF7"/>
<path d="M80 12H68V8C67.9937 5.88022 67.1488 3.84906 65.6499 2.35014C64.1509 0.851219 62.1198 0.00633091 60 0H28C25.8802 0.00633091 23.8491 0.851219 22.3501 2.35014C20.8512 3.84906 20.0063 5.88022 20 8V12H8C5.88022 12.0063 3.84906 12.8512 2.35014 14.3501C0.851219 15.8491 0.00633091 17.8802 0 20V104C0.00633091 106.12 0.851219 108.151 2.35014 109.65C3.84906 111.149 5.88022 111.994 8 112H44V104H8V20H20V32H68V20H80V64H88V20C87.9937 17.8802 87.1488 15.8491 85.6499 14.3501C84.1509 12.8512 82.1198 12.0063 80 12ZM60 24H28V8H60V24Z" fill="#699BF7"/>
</svg>
