<svg width="90" height="103" viewBox="0 0 90 103" fill="none" xmlns="http://www.w3.org/2000/svg">
<path d="M45 49.4401C41.16 49.4401 38.6 52.0001 38.6 55.8401C38.6 58.4001 40.52 60.32 42.44 60.96L40.52 69.9201H48.84L46.92 60.96C49.48 60.32 50.76 58.4001 50.76 55.8401C51.4 52.0001 48.84 49.4401 45 49.4401ZM45.64 21.92C41.16 21.92 36.68 25.12 36.68 29.6V39.2001H53.96V29.6C53.32 25.12 50.12 21.92 45.64 21.92ZM45 0.800049L0.199997 20V39.2001C0.839997 67.3601 18.76 92.32 45 102.56C71.24 92.32 89.16 67.3601 89.8 39.2001V20L45 0.800049ZM70.6 71.2001C70.6 75.04 68.04 77.6001 64.2 77.6001H25.8C21.96 77.6001 19.4 75.04 19.4 71.2001V45.6C19.4 41.76 21.96 39.2001 25.8 39.2001H27.72V29.6C28.36 20.64 36.04 13.6 45 13.6C53.96 13.6 61.64 20.64 62.28 29.6V39.2001H64.2C68.04 39.2001 70.6 41.76 70.6 45.6V71.2001Z" fill="#699BF7"/>
</svg>
