<svg width="52" height="60" viewBox="0 0 52 60" fill="none" xmlns="http://www.w3.org/2000/svg">
<path d="M26 29.9999C33.3638 29.9999 39.3333 24.0304 39.3333 16.6666C39.3333 9.30279 33.3638 3.33325 26 3.33325C18.6362 3.33325 12.6667 9.30279 12.6667 16.6666C12.6667 24.0304 18.6362 29.9999 26 29.9999Z" stroke="#699BF7" stroke-width="5.33333"/>
<path d="M39.3333 35.3333H40.272C42.2215 35.3338 44.1038 36.0462 45.5651 37.3367C47.0264 38.6271 47.9663 40.4068 48.208 42.3413L49.2507 50.6719C49.3445 51.4224 49.2775 52.1842 49.0544 52.9069C48.8312 53.6295 48.4569 54.2964 47.9563 54.8634C47.4557 55.4303 46.8403 55.8843 46.1508 56.1952C45.4614 56.5061 44.7136 56.6668 43.9573 56.6666H8.04267C7.28635 56.6668 6.53865 56.5061 5.84919 56.1952C5.15973 55.8843 4.54427 55.4303 4.04367 54.8634C3.54306 54.2964 3.16877 53.6295 2.94561 52.9069C2.72246 52.1842 2.65555 51.4224 2.74933 50.6719L3.78933 42.3413C4.03119 40.4058 4.97177 38.6255 6.43422 37.3349C7.89666 36.0443 9.78021 35.3325 11.7307 35.3333H12.6667" stroke="#699BF7" stroke-width="5.33333" stroke-linecap="round" stroke-linejoin="round"/>
</svg>
